# xmcd CD database file
#
# Track frame offsets:
#	206
#	19483
#	31389
#	43515
#	55956
#	69646
#	80468
#	96578
#	109785
#	127918
#
# Disc length: 1889 seconds
#
# Revision: 4
# Processed by: cddbd v1.5.2PL0 Copyright (c) Steve Scherf et al.
# Submitted via: CDex 1.51
#
DISCID=87075f0a
DTITLE=Toby Keith - Classic Christmas - Volume One
DYEAR=2007
DGENRE=Christmas
TTITLE0=Have Yourself A Merry Little Christmas
TTITLE1=Let It Snow, Let It Snow, Let It Snow
TTITLE2=Winter Wonderland
TTITLE3=Silver Bells
TTITLE4=I'll Be Home For Christmas
TTITLE5=Rockin' Around The Christmas Tree
TTITLE6=The Christmas Song
TTITLE7=White Christmas
TTITLE8=Frosty The Snowman
TTITLE9=Please Come Home For Christmas
EXTD=YEAR: 2007
EXTT0=
EXTT1=
EXTT2=
EXTT3=
EXTT4=
EXTT5=
EXTT6=
EXTT7=
EXTT8=
EXTT9=
PLAYORDER=
